HIERARCHY
ROOT pelvis
{
  OFFSET 0 100 0
  CHANNELS 6 Xposition Yposition Zposition Zrotation Xrotation Yrotation
  JOINT pelvis_right_femur
  {
    OFFSET -10.78128 -3.44521 -0.5502486
    CHANNELS 3 Zrotation Xrotation Yrotation
    JOINT right_femur_tibia
    {
      OFFSET -0.8047443 -44.0398 -0.1307829
      CHANNELS 3 Zrotation Xrotation Yrotation
      JOINT right_tibia_foot
      {
        OFFSET 3.006224 -47.83518 -5
        CHANNELS 3 Zrotation Xrotation Yrotation
        End Site
        {
          OFFSET 0 -5 15
        }
      }
    }
  }
  JOINT pelvis_left_femur
  {
    OFFSET 10.78128 -3.44521 -0.5502486
    CHANNELS 3 Zrotation Xrotation Yrotation
    JOINT left_femur_tibia
    {
      OFFSET 0.8047443 -44.0398 -0.1307829
      CHANNELS 3 Zrotation Xrotation Yrotation
      JOINT left_tibia_foot
      {
        OFFSET -4.370144 -48.10324 -4.275266
        CHANNELS 3 Zrotation Xrotation Yrotation
        End Site
        {
          OFFSET 0 -5 15
        }
      }
    }
  }
  JOINT pelvis_spine1
  {
    OFFSET 0 6.468898 -3.129235
    CHANNELS 3 Zrotation Xrotation Yrotation
    JOINT spine1
    {
      OFFSET 0 23.15396 4.99043
      CHANNELS 3 Zrotation Xrotation Yrotation
      JOINT spine2
      {
        OFFSET 0 20.79997 -5.064912
        CHANNELS 3 Zrotation Xrotation Yrotation
        JOINT neck
        {
          OFFSET 0 14.38658 9.616178
          CHANNELS 3 Zrotation Xrotation Yrotation
          End Site
          {
            OFFSET 0 20 0
          }
        }
      }
      JOINT right_manubrium
      {
        OFFSET -5.722621 16.35077 3.967754
        CHANNELS 3 Zrotation Xrotation Yrotation
        JOINT right_clavicle
        {
          OFFSET -13.16364 1.694482 -4.693211
          CHANNELS 3 Zrotation Xrotation Yrotation
          JOINT right_humerus
          {
            OFFSET -28.5034 -0.3100689 -2.792744
            CHANNELS 3 Zrotation Xrotation Yrotation
            JOINT right_radius
            {
              OFFSET -25.15693 0.02248979 -1.271978
              CHANNELS 3 Zrotation Xrotation Yrotation
              End Site
              {
                OFFSET -15 0 0
              }
            }
          }
        }
      }
      JOINT left_manubrium
      {
        OFFSET 5.722621 16.35077 3.967754
        CHANNELS 3 Zrotation Xrotation Yrotation
        JOINT left_clavicle
        {
          OFFSET 13.16364 1.694482 -4.693211
          CHANNELS 3 Zrotation Xrotation Yrotation
          JOINT left_humerus
          {
            OFFSET 29.39168 -1.063119 -2.237045
            CHANNELS 3 Zrotation Xrotation Yrotation
            JOINT left_radius
            {
              OFFSET 24.59957 -0.9528479 0.9047498
              CHANNELS 3 Zrotation Xrotation Yrotation
              End Site
              {
                OFFSET 15 -0 -0
              }
            }
          }
        }
      }
    }
  }
}
MOTION
Frames: 19
Frame Time: 0.0416666666667
-154.069 100.1918 3085.402 -1.600042 -4.561006 -18.5613 3.463336 17.82987 2.05399 -0 12.5164 -0 -3.211447 -17.07907 -1.146242 2.15416 -27.05892 -3.975075 -0 16.96948 -0 -5.74994 -6.647211 20.45449 -1.130508 1.248687 8.013695 -1.224906 8.804476 -2.01305 2.603086 23.07696 3.758195 0.5318242 -17.81125 7.160473 -2.978351 -22.96106 9.213532 85.30208 16.64819 -4.311536 -0 0 25.23268 -21.27644 5.305081 12.49455 3.607437 -12.97128 -2.350897 -96.46909 24.66872 28.95891 0 0 -4.519237 -3.786799 2.69275 19.31371
-155.2708 99.19554 3091.95 -1.142782 -4.068762 -19.12637 2.276667 19.32201 1.993828 -0 16.31422 -0 -3.01767 -15.06618 -0.7741546 0.9226237 -26.63831 -4.744106 -0 15.00814 -0 -4.980899 -6.699861 20.6353 -1.07007 1.301758 8.191028 -1.292874 8.679826 -1.755121 2.557146 23.10044 3.769065 0.4909355 -18.04905 7.159458 -3.257749 -23.38619 9.12713 85.10808 16.47406 -3.414562 -0 0 25.99842 -21.51919 5.149633 12.80543 3.559121 -12.55404 -2.142413 -97.31877 24.4792 30.26114 0 0 -3.267203 -4.005266 2.636474 19.61887
-156.4812 98.62792 3098.891 -0.4803019 -4.283621 -19.504 0.7609241 20.22591 2.08429 -0 22.07615 -0 -2.897731 -10.81404 -0.6739218 -1.046734 -25.00844 -6.053443 -0 15.86938 -0 -4.185128 -7.288857 20.77013 -1.040895 1.317216 8.195814 -1.299157 8.627342 -1.680446 2.537826 23.14217 3.778888 0.4727788 -18.17929 7.170374 -3.409072 -23.51485 9.074699 85.14916 16.4354 -3.167975 -0 0 26.09906 -21.57059 5.069871 12.89214 3.557964 -12.46392 -2.070493 -97.60354 24.4269 30.65722 0 0 -2.852564 -4.017952 2.71567 19.67509
-157.6987 98.63583 3106.053 0.1649103 -5.081395 -19.50858 -0.7062746 19.92869 2.327202 -0 29.95561 -0 -2.788307 -4.892319 -0.8781289 -3.172122 -22.25278 -7.529475 -0 18.12041 -0 -3.393483 -8.291873 20.73563 -1.04368 1.29702 8.029282 -1.24488 8.644118 -1.780393 2.548252 23.21329 3.780911 0.4735891 -18.20411 7.192658 -3.442874 -23.35453 9.055515 85.42547 16.52026 -3.552317 -0 0 25.53378 -21.42037 5.044689 12.7506 3.598014 -12.691 -2.135296 -97.34512 24.52747 30.17491 0 0 -3.247979 -3.825841 2.944815 19.48384
-158.8901 99.28143 3113.177 0.5229131 -6.097984 -19.03538 -1.630751 17.58478 2.63666 -0 39.41249 -0 -2.72622 1.395429 -1.421456 -4.828228 -18.39818 -8.665219 -0 20.30873 -0 -2.543063 -9.400777 20.41221 -1.076668 1.245762 7.693689 -1.130098 8.717249 -2.044641 2.584829 23.31711 3.777799 0.4910344 -18.1452 7.228338 -3.382227 -22.92584 9.061402 85.94116 16.7161 -4.528136 -0 0 24.32788 -21.07851 5.059054 12.39166 3.677829 -13.21774 -2.3227 -96.57601 24.76215 28.86289 0 0 -4.40456 -3.426969 3.325874 19.04259
-160.0033 100.4733 3119.978 0.3963931 -6.933937 -18.15603 -1.669855 12.70451 2.865099 -0 48.70577 -0 -2.8296 6.370675 -2.259966 -5.63399 -13.60509 -9.136769 -0 21.32887 -0 -1.610102 -10.35783 19.82343 -1.136893 1.169808 7.194737 -0.954897 8.8277 -2.461365 2.639053 23.44947 3.778822 0.5242065 -18.03776 7.280611 -3.257916 -22.26136 9.080156 86.70031 17.0067 -6.040396 -0 0 22.53194 -20.57079 5.101115 11.83708 3.798266 -14.02013 -2.60888 -95.33579 25.08412 26.78689 0 0 -6.262845 -2.81747 3.846172 18.34542
-160.9987 101.9363 3126.258 -0.1793408 -7.364743 -17.07722 -0.9262537 5.697094 2.908762 -0 55.17577 -0 -3.185479 8.763898 -3.241745 -5.651056 -8.282328 -9.002046 -0 20.72358 -0 -0.6818587 -11.1859 19.11359 -1.220096 1.076942 6.547669 -0.7219751 8.954009 -3.013509 2.69914 23.59932 3.796807 0.5732634 -17.92567 7.352093 -3.105097 -21.40946 9.099155 87.69783 17.36702 -8.010657 -0 0 20.23239 -19.93747 5.159011 11.1198 3.959466 -15.06272 -2.963207 -93.68279 25.42444 24.04729 0 0 -8.74438 -1.998508 4.475333 17.39118
-161.8804 103.2832 3131.986 -0.890605 -7.39912 -16.00416 0.0814377 -2.192743 2.696128 -0 56.52364 -0 -3.720278 8.410918 -4.188275 -5.288987 -2.998564 -8.581794 -0 18.77387 -0 0.07884457 -12.19146 18.38838 -1.319712 0.9758138 5.7825 -0.4390711 9.076611 -3.675027 2.75207 23.75043 3.844892 0.6389424 -17.85539 7.443381 -2.959704 -20.43615 9.108925 88.91028 17.76087 -10.33014 -0 0 17.55789 -19.23117 5.219578 10.28393 4.15831 -16.29454 -3.351813 -91.70823 25.70271 20.79826 0 0 -11.73902 -0.985154 5.166324 16.19477
-162.7039 104.1544 3137.294 -1.341624 -7.168202 -15.05326 0.7797389 -9.593395 2.127519 -0 52.14166 -0 -4.210965 6.223638 -4.977226 -4.984356 1.765863 -8.174081 -0 16.23411 -0 0.5209306 -13.68542 17.62462 -1.426044 0.8746105 4.944054 -0.1196115 9.182408 -4.410741 2.7862 23.88471 3.933286 0.7219609 -17.86782 7.552461 -2.853767 -19.41907 9.10591 90.29261 18.14451 -12.86499 -0 0 14.66959 -18.51055 5.269902 9.380821 4.38738 -17.65166 -3.743022 -89.53841 25.84465 17.24724 0 0 -15.10343 0.1880448 5.86363 14.79461
-163.5504 104.3351 3142.41 -1.322515 -6.789453 -14.25723 0.8873139 -15.6752 1.163586 -0 43.33522 -0 -4.450487 3.513676 -5.552083 -4.950273 5.811589 -7.898317 -0 13.91445 -0 0.5654684 -15.68606 16.74106 -1.526579 0.7794636 4.08668 0.2185944 9.267242 -5.179514 2.79366 23.98641 4.066716 0.8221647 -17.98987 7.675088 -2.810983 -18.4356 9.093217 91.78123 18.47527 -15.47054 -0 0 11.73989 -17.83187 5.300793 8.462975 4.635459 -19.06423 -4.11217 -87.32215 25.80055 13.63303 0 0 -18.66956 1.46688 6.515949 13.2531
-164.4936 103.7963 3147.574 -0.8909874 -6.316469 -13.60082 0.5101182 -20.24233 -0.05024938 -0 32.46309 -0 -4.38524 1.311681 -5.919232 -5.155459 9.198714 -7.729022 -0 12.42743 -0 0.2133058 -17.87154 15.70845 -1.607702 0.6933305 3.267204 0.5552577 9.335208 -5.937545 2.771755 24.04583 4.242724 0.9373763 -18.22856 7.805451 -2.844016 -17.55237 9.079024 93.29936 18.72083 -18.00305 -0 0 8.934123 -17.24235 5.309651 7.580241 4.888489 -20.46198 -4.443318 -85.21229 25.5571 10.1978 0 0 -22.25138 2.781284 7.087669 11.65198
-165.5881 102.6743 3152.982 -0.2702003 -5.767837 -13.04913 0.003783505 -23.4319 -1.214562 -0 21.91063 -0 -4.126185 0.08933236 -6.14141 -5.441962 12.09093 -7.588437 -0 12.17637 -0 -0.4780605 -19.74171 14.58498 -1.657452 0.6153649 2.538731 0.8691685 9.396599 -6.640555 2.723188 24.06164 4.450795 1.062342 -18.56918 7.936444 -2.953673 -16.82066 9.073646 94.76289 18.86505 -20.32607 -0 0 6.400286 -16.77673 5.300486 6.779496 5.130134 -21.77682 -4.728683 -83.34848 25.13976 7.164042 0 0 -25.64861 4.052189 7.564814 10.08546
-166.8796 101.2238 3158.768 0.2787807 -5.18066 -12.56983 -0.2247011 -25.42039 -2.012728 -0 13.51167 -0 -3.869154 -0.1623182 -6.299875 -5.635493 14.60828 -7.404023 -0 13.46828 -0 -1.42034 -20.79545 13.49306 -1.66824 0.5406013 1.945843 1.139569 9.466526 -7.24599 2.65515 24.04088 4.672956 1.188418 -18.97866 8.059799 -3.129917 -16.2775 9.086551 96.08784 18.908 -22.31629 -0 0 4.263359 -16.45645 5.281342 6.105484 5.342114 -22.94555 -4.967878 -81.84368 24.60595 4.71849 0 0 -28.65618 5.201163 7.954015 8.651719
-168.41 99.76816 3164.99 0.5314201 -4.651921 -12.15568 0.1445013 -26.28219 -2.217416 -0 8.386572 -0 -3.788056 0.2766058 -6.451528 -5.598364 16.72705 -7.129057 -0 16.61755 -0 -2.511098 -20.63989 12.59155 -1.638082 0.4601523 1.521786 1.347449 9.564234 -7.715493 2.577439 23.99659 4.886368 1.304263 -19.41374 8.166655 -3.355003 -15.95022 9.12429 97.19886 18.86041 -23.86964 -0 0 2.622257 -16.29174 5.261607 5.601267 5.504991 -23.91356 -5.167293 -80.77807 24.03097 3.005156 0 0 -31.08088 6.160304 8.276236 7.444045
-170.2012 98.64787 3171.631 0.3451747 -4.348854 -11.84838 1.251576 -25.95672 -1.737559 -0 6.894557 -0 -3.945012 1.018894 -6.617945 -5.253518 18.20707 -6.756608 -0 21.94132 -0 -3.64629 -19.07704 12.05527 -1.569531 0.3620772 1.288073 1.476485 9.711985 -8.016827 2.500044 23.94398 5.067489 1.39735 -19.83154 8.24873 -3.608417 -15.86189 9.189793 98.03588 18.73564 -24.90459 -0 0 1.550501 -16.28721 5.251893 5.308318 5.600036 -24.63822 -5.338483 -80.20266 23.48981 2.129184 0 0 -32.75803 6.879494 8.559359 6.542737
-172.2241 98.15291 3178.592 -0.2845771 -4.46219 -11.75303 2.962164 -24.27957 -0.6473471 -0 8.519217 -0 -4.24895 1.626794 -6.800221 -4.61563 18.55911 -6.337535 -0 29.56386 -0 -4.733232 -16.22458 12.03897 -1.466771 0.232803 1.255346 1.513724 9.932453 -8.125442 2.430553 23.89604 5.196961 1.455997 -20.20006 8.29985 -3.872379 -16.03472 9.282818 98.55824 18.54312 -25.36283 -0 0 1.099248 -16.44974 5.267687 5.266209 5.612929 -25.0916 -5.494595 -80.14893 23.03835 2.165615 0 0 -33.56411 7.330834 8.833135 6.006406
-174.3762 98.43294 3185.675 -1.171629 -5.083121 -12.00899 4.813067 -21.10113 0.7927193 -0 11.81506 -0 -4.509406 1.616981 -6.977009 -3.826156 17.14058 -5.97693 -0 39.01502 -0 -5.689145 -12.63227 12.60711 -1.332238 0.05893379 1.422902 1.450793 10.24409 -8.027315 2.371735 23.85918 5.264746 1.471782 -20.50635 8.317717 -4.135875 -16.48848 9.400757 98.74812 18.28589 -25.21225 -0 0 1.297804 -16.79625 5.336403 5.510993 5.539706 -25.26403 -5.64471 -80.63547 22.69598 3.160659 0 0 -33.42828 7.512325 9.12713 5.860855
-176.5093 99.4169 3192.61 -1.969253 -6.069858 -12.68869 6.159251 -16.50633 2.188683 -0 14.81072 -0 -4.599528 0.5754836 -7.064549 -3.128619 13.48229 -5.769804 -0 48.85515 -0 -6.41022 -9.21718 13.65748 -1.164535 -0.1707206 1.77491 1.286516 10.65525 -7.724643 2.319945 23.8289 5.274679 1.442116 -20.76011 8.305595 -4.394473 -17.23171 9.539199 98.61458 17.96246 -24.45764 -0 0 2.146337 -17.35696 5.505214 6.071128 5.393696 -25.17022 -5.787945 -81.66232 22.43338 5.113696 0 0 -32.34881 7.451619 9.469523 6.08717
-178.5048 100.8157 3199.158 -2.348338 -7.076149 -13.69846 6.574027 -10.96637 3.186033 -0 16.01131 -0 -4.583117 -1.546182 -6.914603 -2.710132 7.727944 -5.700134 -0 56.84716 -0 -6.767966 -6.863687 14.93533 -0.9591967 -0.4631188 2.275485 1.030445 11.15997 -7.242804 2.265725 23.78694 5.245766 1.372046 -20.98894 8.272644 -4.643919 -18.24797 9.692469 98.1952 17.57079 -23.15685 -0 0 3.602428 -18.16909 5.842588 6.96099 5.208725 -24.85538 -5.911237 -83.19062 22.17351 7.942352 0 0 -30.41249 7.205456 9.882706 6.618355
